<svg width="212" height="3" viewBox="0 0 212 3" fill="none" xmlns="http://www.w3.org/2000/svg">
<path opacity="0.5" d="M1 2.2124L3.5 1.2124C5.10485 0.570461 6.89515 0.570461 8.5 1.2124V1.2124C10.1049 1.85434 11.8951 1.85434 13.5 1.2124V1.2124C15.1049 0.570461 16.8951 0.570461 18.5 1.2124V1.2124C20.1049 1.85434 21.8951 1.85434 23.5 1.2124V1.2124C25.1049 0.570461 26.8951 0.570461 28.5 1.2124V1.2124C30.1049 1.85434 31.8951 1.85434 33.5 1.2124V1.2124C35.1049 0.570461 36.8951 0.570461 38.5 1.2124V1.2124C40.1049 1.85434 41.8951 1.85434 43.5 1.2124V1.2124C45.1049 0.570461 46.8951 0.570461 48.5 1.2124V1.2124C50.1049 1.85434 51.8951 1.85434 53.5 1.2124V1.2124C55.1049 0.570461 56.8951 0.570461 58.5 1.2124V1.2124C60.1049 1.85434 61.8951 1.85434 63.5 1.2124V1.2124C65.1049 0.570461 66.8951 0.570461 68.5 1.2124V1.2124C70.1049 1.85434 71.8951 1.85434 73.5 1.2124V1.2124C75.1049 0.570461 76.8951 0.570461 78.5 1.2124V1.2124C80.1049 1.85434 81.8951 1.85434 83.5 1.2124V1.2124C85.1049 0.570461 86.8951 0.570461 88.5 1.2124V1.2124C90.1049 1.85434 91.8951 1.85434 93.5 1.2124V1.2124C95.1049 0.570461 96.8951 0.570461 98.5 1.2124V1.2124C100.105 1.85434 101.895 1.85434 103.5 1.2124V1.2124C105.105 0.570461 106.895 0.570461 108.5 1.2124V1.2124C110.105 1.85434 111.895 1.85434 113.5 1.2124V1.2124C115.105 0.570461 116.895 0.570461 118.5 1.2124V1.2124C120.105 1.85434 121.895 1.85434 123.5 1.2124V1.2124C125.105 0.570461 126.895 0.570461 128.5 1.2124V1.2124C130.105 1.85434 131.895 1.85434 133.5 1.2124V1.2124C135.105 0.570461 136.895 0.570461 138.5 1.2124V1.2124C140.105 1.85434 141.895 1.85434 143.5 1.2124V1.2124C145.105 0.570461 146.895 0.570461 148.5 1.2124V1.2124C150.105 1.85434 151.895 1.85434 153.5 1.2124V1.2124C155.105 0.570461 156.895 0.570461 158.5 1.2124V1.2124C160.105 1.85434 161.895 1.85434 163.5 1.2124V1.2124C165.105 0.570461 166.895 0.570461 168.5 1.2124V1.2124C170.105 1.85434 171.895 1.85434 173.5 1.2124V1.2124C175.105 0.570461 176.895 0.570461 178.5 1.2124V1.2124C180.105 1.85434 181.895 1.85434 183.5 1.2124V1.2124C185.105 0.570461 186.895 0.570461 188.5 1.2124V1.2124C190.105 1.85434 191.895 1.85434 193.5 1.2124V1.2124C195.105 0.570461 196.895 0.570461 198.5 1.2124V1.2124C200.105 1.85434 201.895 1.85434 203.5 1.2124V1.2124C205.105 0.570461 206.895 0.570461 208.5 1.2124L211 2.2124" stroke="#FB974E" stroke-linecap="round" stroke-linejoin="round"/>
</svg>
