<svg width="50" height="50" viewBox="0 0 50 50" fill="none" xmlns="http://www.w3.org/2000/svg">
<rect width="50" height="50" fill="white"/>
<path d="M7.70752 9.98444C7.70752 8.72693 8.72693 7.70752 9.98444 7.70752H37.5029C39.5314 7.70752 40.5473 10.1601 39.1129 11.5945L26.9637 23.7436C26.0745 24.6328 26.0745 26.0745 26.9637 26.9637L39.1129 39.1129C40.5473 40.5473 39.5314 42.9998 37.5028 42.9998H9.98444C8.72693 42.9998 7.70752 41.9804 7.70752 40.7229V9.98444Z" fill="#0EB80E"/>
<path d="M35.7953 40.7923H8.27692C7.29555 40.7923 6.5 39.9968 6.5 39.0154V8.27692C6.5 7.29555 7.29555 6.5 8.27692 6.5H35.7953C37.3784 6.5 38.1712 8.414 37.0518 9.5334L24.9026 21.6826C23.8182 22.767 23.8182 24.5253 24.9026 25.6097L37.0518 37.7589C38.1712 38.8783 37.3784 40.7923 35.7953 40.7923Z" stroke="black"/>
</svg>
