<svg width="50" height="50" viewBox="0 0 50 50" fill="none" xmlns="http://www.w3.org/2000/svg">
<rect width="50" height="50" fill="white"/>
<path d="M13.2715 28.6897C11.1426 28.2306 11.1426 25.1933 13.2715 24.7341L20.6852 23.1351C21.4621 22.9675 22.0689 22.3607 22.2364 21.5838L23.8355 14.1701C24.2947 12.0412 27.332 12.0412 27.7911 14.1701L29.3902 21.5838C29.5577 22.3607 30.1646 22.9675 30.9414 23.1351L38.3551 24.7341C40.4841 25.1933 40.4841 28.2306 38.3551 28.6897L30.9414 30.2888C30.1646 30.4563 29.5577 31.0632 29.3902 31.84L27.7911 39.2537C27.332 41.3827 24.2947 41.3827 23.8355 39.2537L22.2364 31.84C22.0689 31.0632 21.4621 30.4563 20.6852 30.2888L13.2715 28.6897Z" fill="#0EB80E"/>
<path d="M11.2754 26.201C9.67252 25.8553 9.67252 23.5686 11.2754 23.2228L18.6891 21.6238C19.6579 21.4148 20.4147 20.6581 20.6236 19.6892L22.2227 12.2755C22.5684 10.6727 24.8551 10.6727 25.2008 12.2755L26.7998 19.6892C27.0088 20.6581 27.7656 21.4148 28.7344 21.6238L36.1481 23.2228C37.751 23.5686 37.751 25.8553 36.1481 26.201L28.7344 27.8C27.7656 28.009 27.0088 28.7658 26.7998 29.7346L25.2008 37.1483C24.8551 38.7511 22.5684 38.7511 22.2227 37.1483L20.6236 29.7346C20.4147 28.7658 19.6579 28.009 18.6891 27.8L11.2754 26.201Z" stroke="black"/>
</svg>
