<svg width="137" height="6" viewBox="0 0 137 6" fill="none" xmlns="http://www.w3.org/2000/svg">
<path opacity="0.5" d="M136 1L133.5 3C132.038 4.16927 129.962 4.16927 128.5 3V3C127.038 1.83073 124.962 1.83073 123.5 3V3C122.038 4.16927 119.962 4.16927 118.5 3V3C117.038 1.83073 114.962 1.83073 113.5 3V3C112.038 4.16927 109.962 4.16927 108.5 3V3C107.038 1.83073 104.962 1.83073 103.5 3V3C102.038 4.16927 99.9616 4.16927 98.5 3V3C97.0384 1.83073 94.9616 1.83073 93.5 3V3C92.0384 4.16927 89.9616 4.16927 88.5 3V3C87.0384 1.83073 84.9616 1.83073 83.5 3V3C82.0384 4.16927 79.9616 4.16927 78.5 3V3C77.0384 1.83073 74.9616 1.83073 73.5 3V3C72.0384 4.16927 69.9616 4.16927 68.5 3V3C67.0384 1.83073 64.9616 1.83073 63.5 3V3C62.0384 4.16927 59.9616 4.16927 58.5 3V3C57.0384 1.83073 54.9616 1.83073 53.5 3V3C52.0384 4.16927 49.9616 4.16927 48.5 3V3C47.0384 1.83073 44.9616 1.83073 43.5 3V3C42.0384 4.16927 39.9616 4.16927 38.5 3V3C37.0384 1.83073 34.9616 1.83073 33.5 3V3C32.0384 4.16927 29.9616 4.16927 28.5 3V3C27.0384 1.83073 24.9616 1.83073 23.5 3V3C22.0384 4.16927 19.9616 4.16927 18.5 3V3C17.0384 1.83073 14.9616 1.83073 13.5 3V3C12.0384 4.16927 9.96159 4.16927 8.5 3V3C7.03841 1.83073 4.96159 1.83073 3.5 3L1 5" stroke="white" stroke-linecap="round" stroke-linejoin="round"/>
</svg>
