<svg width="50" height="50" viewBox="0 0 50 50" fill="none" xmlns="http://www.w3.org/2000/svg">
<rect width="50" height="50" fill="white"/>
<path d="M15.5141 24.5491L23.2406 10.2549C23.9966 8.8563 26.0035 8.8563 26.7595 10.2549L34.486 24.5491C34.8068 25.1425 34.8068 25.8577 34.486 26.4511L26.7595 40.7453C26.0035 42.1439 23.9966 42.1439 23.2406 40.7453L15.5141 26.4511C15.1933 25.8577 15.1933 25.1425 15.5141 24.5491Z" fill="#0EB80E"/>
<path d="M14.734 23.6679L22.4606 9.37381C23.1221 8.15001 24.878 8.15001 25.5395 9.37381L33.2661 23.6679C33.5468 24.1872 33.5468 24.813 33.2661 25.3323L25.5395 39.6264C24.878 40.8502 23.1221 40.8502 22.4606 39.6264L14.734 25.3323C14.4533 24.813 14.4533 24.1872 14.734 23.6679Z" stroke="black" stroke-width="0.500003"/>
</svg>
